<?xml version="1.0" standalone="no"?><!DOCTYPE svg PUBLIC "-//W3C//DTD SVG 1.1//EN" "http://www.w3.org/Graphics/SVG/1.1/DTD/svg11.dtd"><svg t="1599014090896" class="icon" viewBox="0 0 1024 1024" version="1.1" xmlns="http://www.w3.org/2000/svg" p-id="3059" xmlns:xlink="http://www.w3.org/1999/xlink" width="200" height="200"><defs><style type="text/css"></style></defs><path d="M298.666667 298.666667h426.666666c140.8 0 256 115.2 256 256s-115.2 256-256 256c-72.533333 0-140.8-29.866667-192-85.333334h-46.933333c-93.866667 106.666667-256 115.2-362.666667 21.333334s-115.2-256-21.333333-362.666667C157.866667 328.533333 226.133333 298.666667 298.666667 298.666667m-42.666667 128v85.333333H170.666667v85.333333h85.333333v85.333334h85.333333v-85.333334h85.333334v-85.333333H341.333333v-85.333333H256m405.333333 128c-34.133333 0-64 29.866667-64 64s29.866667 64 64 64 64-29.866667 64-64-29.866667-64-64-64m128-128c-34.133333 0-64 29.866667-64 64s29.866667 64 64 64 64-29.866667 64-64-29.866667-64-64-64z" p-id="3060"></path></svg>