<?xml version="1.0" standalone="no"?><!DOCTYPE svg PUBLIC "-//W3C//DTD SVG 1.1//EN" "http://www.w3.org/Graphics/SVG/1.1/DTD/svg11.dtd"><svg class="icon" width="200px" height="200.00px" viewBox="0 0 1024 1024" version="1.1" xmlns="http://www.w3.org/2000/svg"><path fill="#519aba" d="M832.1 592.7c-11 0-20 9-20 20v151.2c0 11-9 20-20 20H231.9c-11 0-20-9-20-20V612.7c0-11-9-20-20-20s-20 9-20 20v151.2c0 33.1 26.9 60 60 60H792c33.1 0 60-26.9 60-60V612.7c0.1-11-8.9-20-19.9-20z"  /><path fill="#519aba" d="M468.3 658.6c11.3 11.9 27.2 18.7 43.6 18.7 16.4 0 32.3-6.8 43.6-18.8l99.1-104.7c7.6-8 7.2-20.7-0.8-28.3-8-7.6-20.7-7.2-28.3 0.8l-93.6 98.9V220c0-11-9-20-20-20s-20 9-20 20v405.2l-93.4-98.6c-7.6-8-20.3-8.4-28.3-0.8-8 7.6-8.4 20.3-0.8 28.3l98.9 104.5z"  /></svg>