<?xml version="1.0" standalone="no"?><!DOCTYPE svg PUBLIC "-//W3C//DTD SVG 1.1//EN" "http://www.w3.org/Graphics/SVG/1.1/DTD/svg11.dtd"><svg class="icon" width="200px" height="200.00px" viewBox="0 0 1024 1024" version="1.1" xmlns="http://www.w3.org/2000/svg"><path fill="#519aba" d="M512 67.2c-246.4 0-448 201.6-448 448s201.6 448 448 448 448-201.6 448-448-201.6-448-448-448z m230.4 339.2l-281.6 262.4-9.6 6.4c-6.4 3.2-9.6 3.2-12.8 3.2-3.2 0-9.6-3.2-12.8-3.2l-9.6-6.4-134.4-134.4c-12.8-12.8-12.8-32 0-44.8 12.8-12.8 32-12.8 44.8 0l112 112 259.2-240c12.8-9.6 32-9.6 44.8 3.2 12.8 12.8 12.8 32 0 41.6z" /></svg>