<?xml version="1.0" standalone="no"?><!DOCTYPE svg PUBLIC "-//W3C//DTD SVG 1.1//EN" "http://www.w3.org/Graphics/SVG/1.1/DTD/svg11.dtd"><svg t="1599013870784" class="icon" viewBox="0 0 1024 1024" version="1.1" xmlns="http://www.w3.org/2000/svg" p-id="5382" xmlns:xlink="http://www.w3.org/1999/xlink" width="200" height="200"><defs><style type="text/css"></style></defs><path d="M818.176 146.432H216.064v82.944h-122.88V256H28.672v22.528h65.536v29.696h122.88v144.384h-122.88v29.696H28.672v22.528h65.536v26.624h122.88V686.08h-122.88v27.648H28.672V737.28h65.536v27.648h122.88v112.64H819.2v-112.64h112.64V737.28h65.536v-22.528H931.84V686.08H819.2V531.456h112.64v-26.624h65.536v-22.528H931.84v-29.696H819.2V308.224h112.64v-29.696h65.536V256H931.84v-26.624H819.2c-1.024-1.024-1.024-82.944-1.024-82.944zM703.488 345.088c-24.576 0-46.08-21.504-46.08-46.08s21.504-46.08 46.08-46.08 46.08 21.504 46.08 46.08-21.504 46.08-46.08 46.08z" fill="#519aba" p-id="5383"></path></svg>